<?xml version="1.0" standalone="no"?><svg xmlns="http://www.w3.org/2000/svg" viewBox="0 0 1440 320"><path fill="#fff" fill-opacity="1" d="M0,96L17.1,112C34.3,128,69,160,103,149.3C137.1,139,171,85,206,101.3C240,117,274,203,309,229.3C342.9,256,377,224,411,213.3C445.7,203,480,213,514,229.3C548.6,245,583,267,617,229.3C651.4,192,686,96,720,90.7C754.3,85,789,171,823,181.3C857.1,192,891,128,926,133.3C960,139,994,213,1029,245.3C1062.9,277,1097,267,1131,261.3C1165.7,256,1200,256,1234,229.3C1268.6,203,1303,149,1337,133.3C1371.4,117,1406,139,1423,149.3L1440,160L1440,320L1422.9,320C1405.7,320,1371,320,1337,320C1302.9,320,1269,320,1234,320C1200,320,1166,320,1131,320C1097.1,320,1063,320,1029,320C994.3,320,960,320,926,320C891.4,320,857,320,823,320C788.6,320,754,320,720,320C685.7,320,651,320,617,320C582.9,320,549,320,514,320C480,320,446,320,411,320C377.1,320,343,320,309,320C274.3,320,240,320,206,320C171.4,320,137,320,103,320C68.6,320,34,320,17,320L0,320Z"></path></svg>